<?xml version="1.0" standalone="no"?>
<!DOCTYPE svg PUBLIC "-//W3C//DTD SVG 20010904//EN"
 "http://www.w3.org/TR/2001/REC-SVG-20010904/DTD/svg10.dtd">
<svg version="1.0" xmlns="http://www.w3.org/2000/svg"
 width="700.000000pt" height="700.000000pt" viewBox="0 0 700.000000 700.000000"
 preserveAspectRatio="xMidYMid meet">
<metadata>
Created by potrace 1.14, written by Peter Selinger 2001-2017
</metadata>
<g transform="translate(0.000000,700.000000) scale(0.100000,-0.100000)"
fill="#000000" stroke="none">
<path d="M2068 5906 c-108 -82 -168 -218 -168 -382 0 -129 38 -288 68 -282 12
3 16 13 15 33 -1 17 -5 73 -8 125 -14 192 47 350 170 437 l29 21 -18 41 c-11
22 -24 41 -31 41 -7 0 -32 -15 -57 -34z"/>
<path d="M2026 4840 c-131 -467 -236 -855 -233 -862 2 -8 141 -256 307 -552
166 -296 298 -542 293 -546 -4 -5 -246 -142 -538 -305 -291 -163 -533 -300
-538 -304 -4 -4 376 -116 845 -248 l853 -240 30 17 c17 10 99 56 183 103 l152
86 0 -470 0 -469 120 0 120 0 0 538 0 537 242 135 c133 74 245 136 249 138 3
1 140 -237 304 -530 164 -293 303 -539 310 -546 10 -11 28 43 89 260 42 150
150 534 240 852 l163 580 -32 55 c-92 158 -586 1044 -583 1046 2 1 247 138
546 305 298 167 542 307 542 310 0 5 -1634 468 -1685 477 -12 3 -224 -111
-564 -301 -300 -168 -547 -306 -551 -306 -4 0 -144 245 -311 545 -167 299
-306 544 -309 545 -3 0 -112 -383 -244 -850z"/>
<path d="M5385 5086 c-123 -26 -145 -35 -145 -58 0 -19 4 -20 48 -14 273 35
445 -15 549 -159 l22 -30 37 20 c21 11 39 25 41 31 6 19 -72 109 -125 143 -81
51 -154 73 -267 77 -59 2 -125 -2 -160 -10z"/>
<path d="M1098 2149 c-21 -11 -38 -26 -38 -34 0 -7 25 -41 56 -75 128 -138
324 -180 563 -119 41 11 76 21 79 23 2 3 1 13 -2 24 -6 18 -11 19 -49 10 -23
-5 -100 -8 -172 -5 -104 3 -142 8 -188 26 -71 28 -132 73 -172 128 -16 23 -32
42 -35 42 -3 0 -22 -9 -42 -20z"/>
<path d="M5019 1760 c-14 -8 -15 -16 -7 -52 15 -62 14 -234 -1 -298 -22 -88
-64 -162 -127 -219 l-57 -52 19 -35 c11 -20 22 -38 27 -41 14 -9 105 67 141
119 61 89 79 156 80 288 1 81 -5 138 -18 193 -22 91 -34 110 -57 97z"/>
</g>
</svg>
